<svg width="72" height="65" viewBox="0 0 72 65" fill="none" xmlns="http://www.w3.org/2000/svg">
<path d="M33.6591 31.72C33.6591 32.68 33.5991 33.68 33.4791 34.72H10.2591C10.4191 36.8 11.0791 38.4 12.2391 39.52C13.4391 40.6 14.8991 41.14 16.6191 41.14C19.1791 41.14 20.9591 40.06 21.9591 37.9H32.8791C32.3191 40.1 31.2991 42.08 29.8191 43.84C28.3791 45.6 26.5591 46.98 24.3591 47.98C22.1591 48.98 19.6991 49.48 16.9791 49.48C13.6991 49.48 10.7791 48.78 8.2191 47.38C5.6591 45.98 3.6591 43.98 2.2191 41.38C0.779105 38.78 0.0591047 35.74 0.0591047 32.26C0.0591047 28.78 0.759105 25.74 2.1591 23.14C3.5991 20.54 5.5991 18.54 8.1591 17.14C10.7191 15.74 13.6591 15.04 16.9791 15.04C20.2191 15.04 23.0991 15.72 25.6191 17.08C28.1391 18.44 30.0991 20.38 31.4991 22.9C32.9391 25.42 33.6591 28.36 33.6591 31.72ZM23.1591 29.02C23.1591 27.26 22.5591 25.86 21.3591 24.82C20.1591 23.78 18.6591 23.26 16.8591 23.26C15.1391 23.26 13.6791 23.76 12.4791 24.76C11.3191 25.76 10.5991 27.18 10.3191 29.02H23.1591ZM41.7718 12.04C39.9718 12.04 38.4918 11.52 37.3318 10.48C36.2118 9.4 35.6518 8.08 35.6518 6.52C35.6518 4.92 36.2118 3.6 37.3318 2.56C38.4918 1.48 39.9718 0.939996 41.7718 0.939996C43.5318 0.939996 44.9718 1.48 46.0918 2.56C47.2518 3.6 47.8318 4.92 47.8318 6.52C47.8318 8.08 47.2518 9.4 46.0918 10.48C44.9718 11.52 43.5318 12.04 41.7718 12.04ZM46.9318 53.32C46.9318 57.44 45.8918 60.4 43.8118 62.2C41.7318 64.04 38.8318 64.96 35.1118 64.96H31.0918V56.26H33.5518C34.6718 56.26 35.4718 56.04 35.9518 55.6C36.4318 55.16 36.6718 54.44 36.6718 53.44V15.52H46.9318V53.32Z" fill="black"/>
<path d="M61.6785 49.76C58.8285 49.76 56.4851 48.9367 54.6485 47.29C52.8751 45.58 51.9885 43.49 51.9885 41.02C51.9885 38.4867 52.8751 36.365 54.6485 34.655C56.4851 32.945 58.8285 32.09 61.6785 32.09C64.4651 32.09 66.7451 32.945 68.5185 34.655C70.3551 36.365 71.2735 38.4867 71.2735 41.02C71.2735 43.49 70.3551 45.58 68.5185 47.29C66.7451 48.9367 64.4651 49.76 61.6785 49.76Z" fill="#687A6E"/>
</svg>
